<svg xmlns="http://www.w3.org/2000/svg" xmlns:xlink="http://www.w3.org/1999/xlink" id="Layer_1" x="0" y="0" version="1.1" viewBox="0 0 40 40" xml:space="preserve" style="enable-background:new 0 0 40 40"><style type="text/css">.st0{fill:#fff}</style><path d="M28,15H12c-0.6,0-1-0.4-1-1s0.4-1,1-1h16c0.6,0,1,0.4,1,1S28.6,15,28,15z" class="st0"/><path d="M28,21H12c-0.6,0-1-0.4-1-1s0.4-1,1-1h16c0.6,0,1,0.4,1,1S28.6,21,28,21z" class="st0"/><path d="M28,27H12c-0.6,0-1-0.4-1-1s0.4-1,1-1h16c0.6,0,1,0.4,1,1S28.6,27,28,27z" class="st0"/></svg>