<svg xmlns="http://www.w3.org/2000/svg" xmlns:xlink="http://www.w3.org/1999/xlink" id="Layer_1" x="0" y="0" version="1.1" viewBox="0 0 40 40" xml:space="preserve" style="enable-background:new 0 0 40 40"><style type="text/css">.st0{fill:#fff}</style><path d="M26.4,15.1L15.1,26.4c-0.4,0.4-1,0.4-1.4,0c-0.4-0.4-0.4-1,0-1.4l11.3-11.3c0.4-0.4,1-0.4,1.4,0	C26.8,14.1,26.8,14.6,26.4,15.1z" class="st0"/><path d="M13.6,13.6c0.4-0.4,1-0.4,1.4,0l11.3,11.3c0.4,0.4,0.4,1,0,1.4c-0.4,0.4-1,0.4-1.4,0L13.6,15.1	C13.2,14.6,13.2,14.1,13.6,13.6z" class="st0"/></svg>