<svg xmlns="http://www.w3.org/2000/svg" xmlns:xlink="http://www.w3.org/1999/xlink" id="Capa_1" x="0" y="0" version="1.1" viewBox="0 0 40 40" xml:space="preserve" style="enable-background:new 0 0 40 40"><style type="text/css">.st0{fill:#fff}</style><g><path id="Facebook" d="M17.4,13.9c0,0.5,0,2.8,0,2.8h-2V20h2v10h4.1V20h2.8c0,0,0.3-1.6,0.4-3.4c-0.4,0-3.2,0-3.2,0 s0-2,0-2.3c0-0.3,0.5-0.8,0.9-0.8c0.4,0,1.4,0,2.3,0c0-0.5,0-2,0-3.5c-1.2,0-2.5,0-3.1,0C17.2,10,17.4,13.4,17.4,13.9z" class="st0"/></g></svg>