<svg xmlns="http://www.w3.org/2000/svg" xmlns:xlink="http://www.w3.org/1999/xlink" id="Layer_1" x="0" y="0" version="1.1" viewBox="0 0 40 40" xml:space="preserve" style="enable-background:new 0 0 40 40"><style type="text/css">.st0{fill:#32383a}</style><g><path d="M24,10h-8c-3.3,0-6,2.7-6,6v8c0,3.3,2.7,6,6,6h8c3.3,0,6-2.7,6-6v-8C30,12.7,27.3,10,24,10z M28,24 c0,2.2-1.8,3.9-3.9,3.9H16c-2.2,0.1-4-1.7-4-3.9v-8c0-2.2,1.8-3.9,3.9-3.9H24c2.2,0,3.9,1.8,3.9,3.9v8H28z" class="st0"/><path d="M20,14.8c-2.9,0-5.2,2.3-5.2,5.2s2.3,5.2,5.2,5.2s5.2-2.3,5.2-5.2S22.9,14.8,20,14.8z M20,23.2 c-1.7,0-3.2-1.4-3.2-3.2s1.4-3.2,3.2-3.2c1.7,0,3.2,1.4,3.2,3.2C23.2,21.7,21.7,23.2,20,23.2z" class="st0"/><circle cx="25.2" cy="14.9" r="1.2" class="st0"/></g></svg>