<svg xmlns="http://www.w3.org/2000/svg" xmlns:xlink="http://www.w3.org/1999/xlink" id="Layer_1" x="0" y="0" version="1.1" viewBox="0 0 40 40" xml:space="preserve" style="enable-background:new 0 0 40 40"><style type="text/css">.st0{fill:#fff}</style><g><path id="LinkedIn" d="M30,22.2v7.4h-4.3v-6.9c0-1.7-0.6-2.9-2.2-2.9c-1.2,0-1.9,0.8-2.2,1.6c-0.1,0.3-0.1,0.7-0.1,1 v7.2h-4.3c0,0,0.1-11.7,0-12.9h4.3v1.8c0,0,0,0,0,0h0v0c0.6-0.9,1.6-2.1,3.9-2.1C27.9,16.4,30,18.2,30,22.2z M12.4,10.4 c-1.5,0-2.4,1-2.4,2.2c0,1.2,0.9,2.2,2.4,2.2h0c1.5,0,2.4-1,2.4-2.2C14.8,11.4,13.9,10.4,12.4,10.4z M10.3,29.6h4.3V16.7h-4.3V29.6 z" class="st0"/></g></svg>